<svg width="24" height="23" viewBox="0 0 24 23" fill="none" xmlns="http://www.w3.org/2000/svg">
<path d="M20.7141 15.7158C20.6211 15.8095 20.5105 15.8839 20.3887 15.9347C20.2668 15.9855 20.1361 16.0116 20.0041 16.0116C19.8721 16.0116 19.7414 15.9855 19.6195 15.9347C19.4977 15.8839 19.3871 15.8095 19.2941 15.7158L12.0041 8.4158L4.71409 15.7158C4.52579 15.9041 4.27039 16.0099 4.00409 16.0099C3.73779 16.0099 3.4824 15.9041 3.29409 15.7158C3.10579 15.5275 3 15.2721 3 15.0058C3 14.7395 3.10579 14.4841 3.29409 14.2958L11.2941 6.2958C11.3871 6.20207 11.4977 6.12768 11.6195 6.07691C11.7414 6.02614 11.8721 6 12.0041 6C12.1361 6 12.2668 6.02614 12.3887 6.07691C12.5105 6.12768 12.6211 6.20207 12.7141 6.2958L20.7141 14.2958C20.8078 14.3888 20.8822 14.4994 20.933 14.6212C20.9838 14.7431 21.0099 14.8738 21.0099 15.0058C21.0099 15.1378 20.9838 15.2685 20.933 15.3904C20.8822 15.5122 20.8078 15.6228 20.7141 15.7158Z" fill="#4C9FC1"/>
</svg>
