<svg width="21" height="20" viewBox="0 0 21 20" fill="none" xmlns="http://www.w3.org/2000/svg">
<path d="M11.8609 18.6653C11.8609 18.9873 11.7288 19.2961 11.4936 19.5238C11.2584 19.7515 10.9393 19.8794 10.6067 19.8794C10.274 19.8794 9.95501 19.7515 9.71979 19.5238C9.48457 19.2961 9.35243 18.9873 9.35243 18.6653L9.36126 11.3207L1.77388 11.3293C1.44123 11.3293 1.1222 11.2014 0.886983 10.9737C0.651764 10.746 0.51962 10.4372 0.51962 10.1152C0.51962 9.79315 0.651764 9.48433 0.886983 9.25664C1.1222 9.02895 1.44123 8.90103 1.77388 8.90103L9.36126 8.90958L9.35243 1.56499C9.35243 1.24299 9.48457 0.934168 9.71979 0.706476C9.95501 0.478784 10.274 0.350868 10.6067 0.350868C10.9393 0.350868 11.2584 0.478784 11.4936 0.706476C11.7288 0.934168 11.8609 1.24299 11.8609 1.56499L11.8521 8.90958L19.4395 8.90103C19.7722 8.90103 20.0912 9.02895 20.3264 9.25664C20.5616 9.48433 20.6938 9.79315 20.6938 10.1152C20.6938 10.4372 20.5616 10.746 20.3264 10.9737C20.0912 11.2014 19.7721 11.3293 19.4395 11.3293L11.8521 11.3207L11.8609 18.6653Z" fill="#464646"/>
</svg>
