<svg width="20" height="20" viewBox="0 0 20 20" fill="none" xmlns="http://www.w3.org/2000/svg">
<path d="M10.0001 1.72498C8.35191 1.72498 6.74074 2.21372 5.37033 3.1294C3.99992 4.04507 2.93182 5.34656 2.30109 6.86928C1.67036 8.392 1.50533 10.0676 1.82687 11.6841C2.14842 13.3006 2.94209 14.7854 4.10753 15.9509C5.27297 17.1163 6.75782 17.91 8.37433 18.2315C9.99084 18.5531 11.6664 18.388 13.1891 17.7573C14.7118 17.1266 16.0133 16.0585 16.929 14.6881C17.8447 13.3177 18.3334 11.7065 18.3334 10.0583C18.3334 7.84817 17.4554 5.72856 15.8926 4.16575C14.3298 2.60295 12.2102 1.72498 10.0001 1.72498ZM16.5834 11.075C16.4221 10.9709 16.2738 10.8478 16.1418 10.7083C16.0534 10.6129 15.9778 10.5065 15.9168 10.3916C15.8766 10.3201 15.8538 10.2402 15.8501 10.1583V10.05C15.8851 9.93889 15.9591 9.84419 16.0584 9.78331C16.2452 9.67525 16.4523 9.60714 16.6668 9.58331C16.6668 9.74164 16.6668 9.90831 16.6668 10.0666C16.6641 10.4044 16.6363 10.7414 16.5834 11.075ZM10.4751 3.41664C10.5699 3.52279 10.6511 3.64036 10.7168 3.76664C10.8335 4.02888 10.8931 4.31293 10.8918 4.59998C10.8951 4.77111 10.8639 4.94115 10.8001 5.09998C10.7509 5.22158 10.6704 5.32797 10.5668 5.40831C10.408 5.51191 10.2374 5.59585 10.0584 5.65831C9.61191 5.822 9.17985 6.0227 8.76675 6.25831C8.51805 6.41063 8.30035 6.60854 8.12508 6.84164C7.92784 7.10616 7.8094 7.42104 7.78342 7.74998V7.87498C7.77353 8.24089 7.88811 8.59932 8.10842 8.89164C8.3917 9.23297 8.78247 9.46802 9.21675 9.55831C9.52868 9.6317 9.84667 9.67633 10.1668 9.69164C10.2653 9.69533 10.3607 9.72714 10.4418 9.78331C10.4418 9.78331 10.4834 9.78331 10.5001 9.94164V10.075C10.4904 10.3062 10.4541 10.5355 10.3918 10.7583C10.3251 11.025 10.2334 11.3333 10.1668 11.675C10.1094 12.0052 10.0815 12.3398 10.0834 12.675C10.0827 13.0333 10.119 13.3908 10.1918 13.7416C10.2035 13.8524 10.2035 13.9642 10.1918 14.075V14.2083L10.1168 14.1666C9.96389 14.071 9.82859 13.9498 9.71675 13.8083C9.56107 13.6225 9.41638 13.4277 9.28342 13.225C9.18342 13.1 9.07509 12.9083 8.93342 12.6916C8.78083 12.4361 8.58969 12.2056 8.36675 12.0083C8.03489 11.7456 7.65986 11.5425 7.25842 11.4083C6.97465 11.3128 6.69644 11.2015 6.42509 11.075C6.29398 11.0132 6.17313 10.9317 6.06675 10.8333C5.99175 10.7666 5.96675 10.7333 5.95842 10.7083V10.5916C5.96159 10.4462 5.98978 10.3025 6.04175 10.1666C6.08101 10.0516 6.14025 9.94442 6.21675 9.84998C6.35842 9.68331 6.52508 9.54998 6.73342 9.30831C6.97188 9.02775 7.13785 8.69296 7.21675 8.33331C7.27959 8.07417 7.31037 7.80829 7.30842 7.54164C7.30523 6.73427 7.00912 5.9555 6.47508 5.34998C6.2855 5.15193 6.06959 4.98088 5.83342 4.84164C7.01386 3.89286 8.48565 3.38068 10.0001 3.39164L10.4751 3.41664ZM14.7168 14.775C13.515 15.9384 11.9197 16.6076 10.2476 16.6497C8.57541 16.6918 6.94852 16.1038 5.68969 15.0023C4.43086 13.9009 3.63209 12.3664 3.45186 10.7035C3.27164 9.04051 3.72313 7.37056 4.71675 6.02498C4.94834 6.08967 5.15472 6.22339 5.30842 6.40831C5.5871 6.71948 5.73878 7.12395 5.73342 7.54164C5.73234 7.68746 5.71558 7.83274 5.68342 7.97498C5.66166 8.10082 5.60704 8.21869 5.52508 8.31664C5.44175 8.41664 5.26675 8.56664 5.04175 8.81664C4.8269 9.05957 4.66259 9.34286 4.55842 9.64998C4.43852 9.96112 4.3764 10.2915 4.37509 10.625C4.37395 10.8367 4.40486 11.0475 4.46675 11.25C4.58369 11.5747 4.78504 11.8623 5.05008 12.0833C5.25144 12.2512 5.47251 12.3939 5.70842 12.5083C6.08342 12.6916 6.43342 12.8 6.71675 12.9083C6.94411 12.9815 7.15802 13.0913 7.35008 13.2333C7.45496 13.3338 7.54477 13.4488 7.61675 13.575C7.72509 13.7333 7.84175 13.9416 8.00009 14.1583C8.22135 14.4989 8.47533 14.8171 8.75842 15.1083C8.93819 15.2918 9.14299 15.4489 9.36675 15.575C9.62168 15.7187 9.90757 15.7988 10.2001 15.8083C10.448 15.8115 10.6933 15.7573 10.9168 15.65C11.2319 15.4912 11.4801 15.2253 11.6168 14.9C11.7298 14.6371 11.7838 14.3527 11.7751 14.0666C11.7726 13.8397 11.7474 13.6136 11.7001 13.3916C11.6491 13.1534 11.624 12.9103 11.6251 12.6666C11.6235 12.4265 11.643 12.1867 11.6834 11.95C11.7251 11.7166 11.8084 11.45 11.8834 11.1166C11.9835 10.7697 12.0368 10.411 12.0418 10.05C12.05 9.94737 12.05 9.84425 12.0418 9.74164C12.003 9.28003 11.7846 8.85208 11.4334 8.54998C11.1051 8.27928 10.6998 8.11891 10.2751 8.09164C9.99211 8.08301 9.71168 8.03533 9.44175 7.94998L9.36675 7.90831V7.82498C9.36675 7.74164 9.36675 7.74164 9.45009 7.65831C9.69799 7.46251 9.98076 7.31547 10.2834 7.22498C10.7123 7.08776 11.1235 6.90035 11.5084 6.66664C11.8405 6.41745 12.0996 6.08359 12.2584 5.69998C12.4157 5.3398 12.498 4.95133 12.5001 4.55831C12.4976 4.31716 12.4696 4.07694 12.4168 3.84164C13.3455 4.19697 14.1831 4.75557 14.868 5.47653C15.5529 6.19749 16.0678 7.06254 16.3751 8.00831C15.9782 8.08336 15.5992 8.23325 15.2584 8.44998C14.8498 8.71902 14.5535 9.12794 14.4251 9.59998C14.3683 9.77487 14.3402 9.95778 14.3418 10.1416C14.3452 10.4631 14.4222 10.7795 14.5668 11.0666C14.758 11.4445 15.0246 11.7791 15.3501 12.05C15.6062 12.2785 15.8855 12.4796 16.1834 12.65C15.8353 13.4458 15.3373 14.1672 14.7168 14.775Z" fill="#464646"/>
</svg>
