<svg width="14" height="13" viewBox="0 0 14 15" fill="none" xmlns="http://www.w3.org/2000/svg">
<path d="M5.31771 4.85752L7 1.01063L8.68229 4.85752C8.82296 5.17918 9.12065 5.41358 9.47896 5.4571L13.4917 5.94448C13.4932 5.94686 13.4954 5.95083 13.4972 5.95673C13.5006 5.96772 13.5005 5.97775 13.499 5.98412C13.4984 5.98693 13.4975 5.98896 13.4966 5.99058C13.4958 5.99206 13.4941 5.99473 13.4902 5.9985L10.5151 8.86574C10.2607 9.11092 10.153 9.46953 10.2187 9.81133L11.0168 13.9629C11.0185 13.9717 11.0184 13.9775 11.0181 13.9809C11.0178 13.9843 11.017 13.987 11.0162 13.9891C11.0154 13.991 11.0144 13.9929 11.0132 13.9945L7.50056 11.9222C7.19078 11.7395 6.80923 11.7395 6.49944 11.9222L2.98677 13.9945C2.9856 13.9929 2.98458 13.991 2.98379 13.9891C2.98296 13.987 2.98223 13.9843 2.9819 13.9809C2.98158 13.9775 2.98146 13.9717 2.98316 13.9629L3.78126 9.81133C3.84697 9.46953 3.73928 9.11092 3.48488 8.86574L0.50982 5.9985C0.505907 5.99473 0.504199 5.99206 0.503378 5.99058C0.502474 5.98896 0.501626 5.98693 0.500986 5.98412C0.499538 5.97775 0.499355 5.96771 0.502761 5.95673C0.504591 5.95083 0.506755 5.94686 0.508317 5.94448L4.52104 5.4571C4.87935 5.41358 5.17704 5.17918 5.31771 4.85752Z" fill="white" stroke="#464646"/>
</svg>
