<svg width="14" height="18" viewBox="0 0 14 18" fill="none" xmlns="http://www.w3.org/2000/svg">
<path d="M7 4.36127C6.48082 4.36127 5.97331 4.51474 5.54163 4.80227C5.10995 5.08981 4.7735 5.49849 4.57482 5.97664C4.37614 6.45479 4.32415 6.98093 4.42544 7.48854C4.52672 7.99614 4.77673 8.4624 5.14384 8.82836C5.51096 9.19432 5.97869 9.44355 6.48789 9.54451C6.99709 9.64548 7.52489 9.59366 8.00454 9.39561C8.4842 9.19755 8.89417 8.86215 9.18261 8.43183C9.47105 8.0015 9.625 7.49558 9.625 6.97803C9.625 6.28402 9.34844 5.61844 8.85616 5.1277C8.36387 4.63696 7.69619 4.36127 7 4.36127ZM7 7.85029C6.82694 7.85029 6.65777 7.79913 6.51388 7.70328C6.36998 7.60744 6.25783 7.47121 6.19161 7.31183C6.12538 7.15245 6.10805 6.97706 6.14181 6.80786C6.17557 6.63866 6.25891 6.48324 6.38128 6.36126C6.50365 6.23927 6.65956 6.15619 6.8293 6.12254C6.99903 6.08888 7.17496 6.10616 7.33485 6.17217C7.49473 6.23819 7.63139 6.34999 7.72754 6.49343C7.82368 6.63688 7.875 6.80552 7.875 6.97803C7.875 7.20937 7.78281 7.43123 7.61872 7.59481C7.45462 7.75839 7.23206 7.85029 7 7.85029ZM7 0C5.14348 0 3.36301 0.735184 2.05025 2.04382C0.737498 3.35245 0 5.12734 0 6.97803C0 12.2116 4.69875 16.1454 6.39625 17.7591C6.55898 17.9137 6.77518 18 7 18C7.22482 18 7.44102 17.9137 7.60375 17.7591C9.30125 16.1454 14 12.2116 14 6.97803C14 5.12734 13.2625 3.35245 11.9497 2.04382C10.637 0.735184 8.85652 0 7 0ZM7 15.9274C5.25 14.2526 1.75 10.9381 1.75 6.97803C1.75 5.59002 2.30312 4.25885 3.28769 3.27737C4.27226 2.2959 5.60761 1.74451 7 1.74451C8.39239 1.74451 9.72775 2.2959 10.7123 3.27737C11.6969 4.25885 12.25 5.59002 12.25 6.97803C12.25 10.9381 8.79375 14.2526 7 15.9274Z" fill="#4C9FC1"/>
</svg>
