<svg width="20" height="20" viewBox="0 0 20 20" fill="none" xmlns="http://www.w3.org/2000/svg">
<path d="M16.7501 14.4583C16.7452 13.8053 16.4849 13.1802 16.0251 12.7166L15.8334 12.5C15.1149 11.7816 14.1411 11.3771 13.1251 11.375C12.5463 11.3793 11.9762 11.5162 11.4584 11.775L10.7501 12.125C10.1472 11.833 9.59779 11.4414 9.1251 10.9666C8.65135 10.4792 8.26263 9.91587 7.9751 9.29997L8.3251 8.59164C8.5882 8.07511 8.72797 7.50462 8.73343 6.92497C8.72477 6.41777 8.61574 5.9173 8.41264 5.45245C8.20954 4.98761 7.91639 4.56759 7.5501 4.21664L7.31676 3.99164C6.84837 3.52266 6.21292 3.25889 5.5501 3.2583H4.8501C4.18706 3.2583 3.55117 3.5217 3.08233 3.99054C2.61349 4.45938 2.3501 5.09526 2.3501 5.7583V5.8333C2.3764 7.20033 2.58948 8.55734 2.98343 9.86664C3.49573 11.5625 4.41064 13.1092 5.6501 14.375C6.91134 15.6179 8.45561 16.5359 10.1501 17.05C11.4583 17.4496 12.8158 17.6656 14.1834 17.6916H14.2418C14.9048 17.6916 15.5407 17.4282 16.0095 16.9594C16.4784 16.4906 16.7418 15.8547 16.7418 15.1916V14.4916L16.7501 14.4583ZM14.2501 16.0083C13.0404 15.9889 11.8396 15.7981 10.6834 15.4416C9.2454 15.0073 7.93331 14.2327 6.85843 13.1833C5.81129 12.1081 5.0394 10.7959 4.60843 9.3583C4.25816 8.19813 4.07027 6.99503 4.0501 5.7833C4.0501 5.56229 4.13789 5.35033 4.29418 5.19405C4.45046 5.03777 4.66242 4.94997 4.88343 4.94997H5.58343C5.6931 4.94934 5.80182 4.97036 5.90335 5.01183C6.00488 5.0533 6.09723 5.1144 6.1751 5.19164L6.4001 5.41664C6.78749 5.81963 7.0027 6.35765 7.0001 6.91664C7.00015 7.25015 6.92013 7.57881 6.76676 7.87497L6.24176 8.9333C6.19224 9.04187 6.16662 9.15981 6.16662 9.27914C6.16662 9.39847 6.19224 9.5164 6.24176 9.62497C6.62679 10.5602 7.19325 11.4099 7.90843 12.125C8.62326 12.8405 9.47301 13.407 10.4084 13.7916C10.517 13.8412 10.6349 13.8668 10.7543 13.8668C10.8736 13.8668 10.9915 13.8412 11.1001 13.7916L12.1584 13.2583C12.5644 13.0516 13.0257 12.9798 13.4753 13.0532C13.9249 13.1267 14.3393 13.3415 14.6584 13.6666L14.8834 13.9C15.0374 14.0552 15.1242 14.2647 15.1251 14.4833V15.175C15.1253 15.2887 15.1022 15.4014 15.0572 15.5059C15.0123 15.6104 14.9464 15.7046 14.8636 15.7826C14.7809 15.8607 14.683 15.921 14.576 15.9598C14.4691 15.9986 14.3553 16.0151 14.2418 16.0083H14.2501ZM10.3668 6.16664C10.3359 5.94784 10.3931 5.72572 10.5259 5.54913C10.6588 5.37255 10.8563 5.25594 11.0751 5.22497C11.2138 5.21414 11.3531 5.21414 11.4918 5.22497C11.8507 5.23004 12.207 5.28616 12.5501 5.39164C13.0403 5.54811 13.486 5.81963 13.8499 6.18351C14.2138 6.54739 14.4853 6.99307 14.6418 7.4833C14.7493 7.8257 14.8027 8.18277 14.8001 8.54164C14.8139 8.68019 14.8139 8.81976 14.8001 8.9583C14.7703 9.17932 14.6538 9.37943 14.4765 9.51461C14.2991 9.64979 14.0753 9.70897 13.8543 9.67914C13.6333 9.6493 13.4331 9.53289 13.298 9.35551C13.1628 9.17813 13.1036 8.95432 13.1334 8.7333C13.1334 8.7333 13.1334 8.64997 13.1334 8.54164C13.1376 8.35214 13.1094 8.16332 13.0501 7.9833C12.9785 7.74724 12.8498 7.53249 12.6753 7.35806C12.5009 7.18363 12.2862 7.05491 12.0501 6.9833C11.8694 6.92611 11.6813 6.89524 11.4918 6.89164C11.4308 6.88625 11.3694 6.88625 11.3084 6.89164C11.1989 6.90683 11.0874 6.90004 10.9804 6.87169C10.8735 6.84334 10.7733 6.79398 10.6856 6.7265C10.598 6.65901 10.5247 6.57476 10.4699 6.47863C10.4152 6.38251 10.3801 6.27645 10.3668 6.16664ZM18.0084 7.7333V7.84997C18.0084 8.07098 17.9206 8.28295 17.7644 8.43923C17.6081 8.59551 17.3961 8.6833 17.1751 8.6833C16.9541 8.6833 16.7421 8.59551 16.5858 8.43923C16.4296 8.28295 16.3418 8.07098 16.3418 7.84997V7.76664C16.3388 7.36597 16.2799 6.96767 16.1668 6.5833C15.9853 5.93164 15.6406 5.33706 15.1652 4.85583C14.6898 4.37461 14.0995 4.02266 13.4501 3.8333C13.0657 3.72012 12.6674 3.66122 12.2668 3.6583H12.1918C12.0823 3.66104 11.9734 3.64219 11.8713 3.60284C11.7691 3.56349 11.6757 3.50441 11.5964 3.42896C11.5171 3.35351 11.4534 3.26318 11.409 3.16312C11.3646 3.06306 11.3403 2.95524 11.3376 2.8458C11.3349 2.73637 11.3537 2.62747 11.3931 2.52532C11.4324 2.42316 11.4915 2.32976 11.5669 2.25045C11.6424 2.17113 11.7327 2.10745 11.8328 2.06304C11.9328 2.01864 12.0407 1.99437 12.1501 1.99164H12.2668C12.8315 1.99386 13.3929 2.07807 13.9334 2.24164C14.8432 2.50662 15.6715 2.99682 16.3415 3.66687C17.0116 4.33692 17.5018 5.16518 17.7668 6.07497C17.9279 6.61298 18.0093 7.17169 18.0084 7.7333Z" fill="#464646"/>
</svg>
