<svg width="20" height="18" viewBox="0 0 20 18" fill="none" xmlns="http://www.w3.org/2000/svg">
<path d="M3.99991 10.18V1C3.99991 0.734784 3.89456 0.48043 3.70702 0.292893C3.51948 0.105357 3.26513 0 2.99991 0C2.7347 0 2.48034 0.105357 2.29281 0.292893C2.10527 0.48043 1.99991 0.734784 1.99991 1V10.18C1.42076 10.3902 0.920374 10.7736 0.566756 11.2782C0.213137 11.7827 0.0234375 12.3839 0.0234375 13C0.0234375 13.6161 0.213137 14.2173 0.566756 14.7218C0.920374 15.2264 1.42076 15.6098 1.99991 15.82V17C1.99991 17.2652 2.10527 17.5196 2.29281 17.7071C2.48034 17.8946 2.7347 18 2.99991 18C3.26513 18 3.51948 17.8946 3.70702 17.7071C3.89456 17.5196 3.99991 17.2652 3.99991 17V15.82C4.57907 15.6098 5.07945 15.2264 5.43307 14.7218C5.78669 14.2173 5.97639 13.6161 5.97639 13C5.97639 12.3839 5.78669 11.7827 5.43307 11.2782C5.07945 10.7736 4.57907 10.3902 3.99991 10.18ZM2.99991 14C2.80213 14 2.60879 13.9414 2.44434 13.8315C2.27989 13.7216 2.15172 13.5654 2.07603 13.3827C2.00035 13.2 1.98054 12.9989 2.01913 12.8049C2.05771 12.6109 2.15296 12.4327 2.29281 12.2929C2.43266 12.153 2.61084 12.0578 2.80482 12.0192C2.9988 11.9806 3.19987 12.0004 3.3826 12.0761C3.56532 12.1518 3.7215 12.28 3.83138 12.4444C3.94127 12.6089 3.99991 12.8022 3.99991 13C3.99991 13.2652 3.89456 13.5196 3.70702 13.7071C3.51948 13.8946 3.26513 14 2.99991 14ZM10.9999 2.18V1C10.9999 0.734784 10.8946 0.48043 10.707 0.292893C10.5195 0.105357 10.2651 0 9.99991 0C9.7347 0 9.48034 0.105357 9.29281 0.292893C9.10527 0.48043 8.99991 0.734784 8.99991 1V2.18C8.42076 2.3902 7.92037 2.77363 7.56676 3.27817C7.21314 3.7827 7.02344 4.38388 7.02344 5C7.02344 5.61612 7.21314 6.2173 7.56676 6.72184C7.92037 7.22637 8.42076 7.6098 8.99991 7.82V17C8.99991 17.2652 9.10527 17.5196 9.29281 17.7071C9.48034 17.8946 9.7347 18 9.99991 18C10.2651 18 10.5195 17.8946 10.707 17.7071C10.8946 17.5196 10.9999 17.2652 10.9999 17V7.82C11.5791 7.6098 12.0795 7.22637 12.4331 6.72184C12.7867 6.2173 12.9764 5.61612 12.9764 5C12.9764 4.38388 12.7867 3.7827 12.4331 3.27817C12.0795 2.77363 11.5791 2.3902 10.9999 2.18ZM9.99991 6C9.80213 6 9.60879 5.94135 9.44434 5.83147C9.27989 5.72159 9.15172 5.56541 9.07603 5.38268C9.00035 5.19996 8.98054 4.99889 9.01913 4.80491C9.05771 4.61093 9.15296 4.43275 9.29281 4.29289C9.43266 4.15304 9.61084 4.0578 9.80482 4.01921C9.99881 3.98063 10.1999 4.00043 10.3826 4.07612C10.5653 4.15181 10.7215 4.27998 10.8314 4.44443C10.9413 4.60888 10.9999 4.80222 10.9999 5C10.9999 5.26522 10.8946 5.51957 10.707 5.70711C10.5195 5.89464 10.2651 6 9.99991 6ZM19.9999 10C20.0002 9.37935 19.8081 8.77387 19.4499 8.26702C19.0917 7.76016 18.5851 7.37688 17.9999 7.17C18.0047 7.11344 18.0047 7.05656 17.9999 7V1C17.9999 0.734784 17.8946 0.48043 17.707 0.292893C17.5195 0.105357 17.2651 0 16.9999 0C16.7347 0 16.4803 0.105357 16.2928 0.292893C16.1053 0.48043 15.9999 0.734784 15.9999 1V7C15.9951 7.05656 15.9951 7.11344 15.9999 7.17C15.4174 7.3782 14.9134 7.76141 14.5571 8.26713C14.2008 8.77285 14.0096 9.37636 14.0096 9.995C14.0096 10.6136 14.2008 11.2171 14.5571 11.7229C14.9134 12.2286 15.4174 12.6118 15.9999 12.82V17C15.9999 17.2652 16.1053 17.5196 16.2928 17.7071C16.4803 17.8946 16.7347 18 16.9999 18C17.2651 18 17.5195 17.8946 17.707 17.7071C17.8946 17.5196 17.9999 17.2652 17.9999 17V12.82C18.5835 12.6137 19.0889 12.2319 19.447 11.7271C19.805 11.2222 19.9982 10.6189 19.9999 10ZM16.9999 11C16.8021 11 16.6088 10.9414 16.4443 10.8315C16.2799 10.7216 16.1517 10.5654 16.076 10.3827C16.0003 10.2 15.9805 9.99889 16.0191 9.80491C16.0577 9.61093 16.153 9.43275 16.2928 9.29289C16.4327 9.15304 16.6108 9.0578 16.8048 9.01921C16.9988 8.98063 17.1999 9.00043 17.3826 9.07612C17.5653 9.15181 17.7215 9.27998 17.8314 9.44443C17.9413 9.60888 17.9999 9.80222 17.9999 10C17.9999 10.2652 17.8946 10.5196 17.707 10.7071C17.5195 10.8946 17.2651 11 16.9999 11Z" fill="#464646"/>
</svg>
