<svg width="24" height="21" viewBox="0 0 24 21" fill="none" xmlns="http://www.w3.org/2000/svg">
<path d="M22.9104 11.2497L14.1604 19.9997C14.0244 20.1357 13.863 20.2435 13.6854 20.3171C13.5077 20.3907 13.3173 20.4286 13.125 20.4286C12.9327 20.4286 12.7423 20.3907 12.5646 20.3171C12.387 20.2435 12.2256 20.1357 12.0896 19.9997C11.9536 19.8637 11.8458 19.7023 11.7722 19.5247C11.6986 19.347 11.6607 19.1566 11.6607 18.9643C11.6607 18.772 11.6986 18.5816 11.7722 18.4039C11.8458 18.2263 11.9536 18.0649 12.0896 17.9289L18.3604 11.6726H1.45833C1.07156 11.6726 0.700627 11.519 0.427136 11.2455C0.153646 10.972 0 10.6011 0 10.2143C0 9.82753 0.153646 9.45659 0.427136 9.1831C0.700627 8.90961 1.07156 8.75597 1.45833 8.75597H18.3604L12.0896 2.49972C11.815 2.22511 11.6607 1.85266 11.6607 1.4643C11.6607 1.07594 11.815 0.703493 12.0896 0.428884C12.3642 0.154274 12.7366 5.78697e-09 13.125 0C13.5134 -5.78696e-09 13.8858 0.154274 14.1604 0.428884L22.9104 9.17888C23.0471 9.31446 23.1556 9.47575 23.2296 9.65346C23.3037 9.83117 23.3418 10.0218 23.3418 10.2143C23.3418 10.4068 23.3037 10.5974 23.2296 10.7751C23.1556 10.9529 23.0471 11.1141 22.9104 11.2497Z" fill="#4C9FC1"/>
</svg>
