<svg width="20" height="20" viewBox="0 0 20 20" fill="none" xmlns="http://www.w3.org/2000/svg">
<path d="M13.7001 2.68335C12.5693 2.68284 11.4779 3.09807 10.6334 3.85001C10.4592 4.0058 10.2338 4.09193 10.0001 4.09193C9.7664 4.09193 9.54092 4.0058 9.36675 3.85001C8.70032 3.25684 7.87655 2.86907 6.99474 2.73346C6.11293 2.59785 5.21071 2.72018 4.39685 3.08572C3.58299 3.45125 2.89222 4.04438 2.40782 4.7936C1.92341 5.54283 1.66605 6.41617 1.66675 7.30835C1.66675 11.2667 7.75008 15.9 9.51675 17.1667C9.65788 17.2672 9.82683 17.3212 10.0001 17.3212C10.1733 17.3212 10.3423 17.2672 10.4834 17.1667C12.2501 15.9 18.3334 11.2667 18.3334 7.30835C18.3312 6.08096 17.8421 4.90459 16.9734 4.03747C16.1047 3.17036 14.9275 2.68335 13.7001 2.68335ZM10.0001 15.45C6.60842 12.95 3.33342 9.54168 3.33342 7.30835C3.33568 6.73887 3.5018 6.18208 3.81194 5.70446C4.12209 5.22684 4.56315 4.84857 5.08245 4.61484C5.60176 4.38111 6.17737 4.30178 6.74054 4.38634C7.30371 4.47089 7.83064 4.71575 8.25842 5.09168C8.73697 5.52095 9.35721 5.75837 10.0001 5.75837C10.643 5.75837 11.2632 5.52095 11.7417 5.09168C12.1695 4.71575 12.6965 4.47089 13.2596 4.38634C13.8228 4.30178 14.3984 4.38111 14.9177 4.61484C15.437 4.84857 15.8781 5.22684 16.1882 5.70446C16.4984 6.18208 16.6645 6.73887 16.6667 7.30835C16.6667 9.54168 13.3917 12.9333 10.0001 15.45Z" fill="#464646"/>
</svg>
