<svg width="14" height="13" viewBox="0 0 14 13" fill="none" xmlns="http://www.w3.org/2000/svg">
<path d="M6.5433 0.759362C6.72235 0.413547 7.27765 0.413546 7.4567 0.759361L9.1404 4.01132C9.21355 4.1526 9.36478 4.24982 9.53925 4.26772L13.5549 4.67969C13.9819 4.7235 14.1535 5.1908 13.8372 5.44834L10.8621 7.87012C10.7328 7.97534 10.6751 8.13265 10.7097 8.28499L11.5078 11.7916C11.5927 12.1645 11.1435 12.4533 10.7689 12.2666L7.2465 10.5114C7.09347 10.4351 6.90653 10.4351 6.7535 10.5114L3.23111 12.2666C2.85654 12.4533 2.40728 12.1645 2.49215 11.7916L3.29026 8.28499C3.32493 8.13265 3.26716 7.97534 3.13791 7.87012L0.16285 5.44834C-0.15352 5.1908 0.0180785 4.7235 0.445105 4.67969L4.46075 4.26772C4.63522 4.24982 4.78645 4.1526 4.8596 4.01132L6.5433 0.759362Z" fill="#545454"/>
</svg>
