<svg width="22" height="23" viewBox="0 0 22 23" fill="none" xmlns="http://www.w3.org/2000/svg">
<path d="M10.9999 12.4167C11.9064 12.4167 12.7926 12.1479 13.5463 11.6442C14.3 11.1406 14.8875 10.4248 15.2344 9.5873C15.5813 8.74981 15.672 7.82825 15.4952 6.93917C15.3183 6.05009 14.8818 5.23342 14.2408 4.59243C13.5998 3.95144 12.7832 3.51492 11.8941 3.33807C11.005 3.16122 10.0834 3.25199 9.24595 3.59889C8.40846 3.94579 7.69264 4.53325 7.18902 5.28697C6.68539 6.0407 6.41659 6.92684 6.41659 7.83334C6.41659 9.04891 6.89947 10.2147 7.75901 11.0742C8.61855 11.9338 9.78434 12.4167 10.9999 12.4167V12.4167ZM10.9999 5.08334C11.5438 5.08334 12.0755 5.24462 12.5277 5.54679C12.98 5.84897 13.3324 6.27846 13.5406 6.78096C13.7487 7.28345 13.8032 7.83639 13.6971 8.36983C13.591 8.90328 13.3291 9.39329 12.9445 9.77788C12.5599 10.1625 12.0699 10.4244 11.5364 10.5305C11.003 10.6366 10.45 10.5821 9.94754 10.374C9.44504 10.1659 9.01555 9.81339 8.71338 9.36115C8.4112 8.90892 8.24992 8.37723 8.24992 7.83334C8.24992 7.10399 8.53965 6.40452 9.05537 5.88879C9.5711 5.37307 10.2706 5.08334 10.9999 5.08334V5.08334ZM17.4166 17V18.8333C17.4166 19.0765 17.32 19.3096 17.1481 19.4815C16.9762 19.6534 16.743 19.75 16.4999 19.75C16.2568 19.75 16.0236 19.6534 15.8517 19.4815C15.6798 19.3096 15.5833 19.0765 15.5833 18.8333V17C15.5833 16.7569 15.4867 16.5237 15.3148 16.3518C15.1429 16.1799 14.9097 16.0833 14.6666 16.0833H7.33325C7.09014 16.0833 6.85698 16.1799 6.68507 16.3518C6.51316 16.5237 6.41659 16.7569 6.41659 17V18.8333C6.41659 19.0765 6.32001 19.3096 6.1481 19.4815C5.97619 19.6534 5.74303 19.75 5.49992 19.75C5.2568 19.75 5.02365 19.6534 4.85174 19.4815C4.67983 19.3096 4.58325 19.0765 4.58325 18.8333V17C4.58325 16.2707 4.87298 15.5712 5.38871 15.0555C5.90443 14.5397 6.60391 14.25 7.33325 14.25H14.6666C15.3959 14.25 16.0954 14.5397 16.6111 15.0555C17.1269 15.5712 17.4166 16.2707 17.4166 17Z" fill="#222221" fill-opacity="0.5"/>
</svg>
